<?xml version="1.0" standalone="no"?>
<!DOCTYPE svg PUBLIC "-//W3C//DTD SVG 20010904//EN"
 "http://www.w3.org/TR/2001/REC-SVG-20010904/DTD/svg10.dtd">
<svg version="1.0" xmlns="http://www.w3.org/2000/svg"
 width="192.000000pt" height="192.000000pt" viewBox="0 0 192.000000 192.000000"
 preserveAspectRatio="xMidYMid meet">
<metadata>
Created by potrace 1.11, written by Peter Selinger 2001-2013
</metadata>
<g transform="translate(0.000000,192.000000) scale(0.100000,-0.100000)"
fill="#000000" stroke="none">
<path d="M0 960 l0 -960 960 0 960 0 0 960 0 960 -960 0 -960 0 0 -960z m420
225 c0 -107 3 -195 8 -195 4 0 83 88 175 195 l169 195 96 0 96 0 -25 -27 c-67
-74 -256 -289 -262 -300 -5 -7 54 -109 139 -245 81 -128 149 -239 151 -245 4
-10 -18 -13 -88 -13 l-94 1 -115 189 c-63 104 -119 189 -125 189 -5 0 -36 -30
-67 -67 l-58 -66 0 -123 0 -123 -85 0 -85 0 0 415 0 415 85 0 85 0 0 -195z
m1038 -10 c146 -44 230 -199 201 -377 -29 -177 -146 -266 -337 -256 -141 7
-218 55 -271 168 -23 48 -26 68 -25 155 0 125 23 184 95 249 78 70 219 96 337
61z"/>
<path d="M1262 1050 c-49 -30 -72 -88 -72 -188 0 -140 38 -194 143 -200 107
-6 157 49 165 181 7 112 -28 192 -95 218 -41 15 -106 10 -141 -11z"/>
</g>
</svg>
