<?xml version="1.0" standalone="no"?>
<!DOCTYPE svg PUBLIC "-//W3C//DTD SVG 20010904//EN"
 "http://www.w3.org/TR/2001/REC-SVG-20010904/DTD/svg10.dtd">
<svg version="1.0" xmlns="http://www.w3.org/2000/svg"
 width="260.000000pt" height="260.000000pt" viewBox="0 0 260.000000 260.000000"
 preserveAspectRatio="xMidYMid meet">
<metadata>
Created by potrace 1.11, written by Peter Selinger 2001-2013
</metadata>
<g transform="translate(0.000000,260.000000) scale(0.100000,-0.100000)"
fill="#000000" stroke="none">
<path d="M0 1300 l0 -1300 1300 0 1300 0 0 1300 0 1300 -1300 0 -1300 0 0
-1300z m582 318 l3 -263 210 262 210 262 174 1 174 0 -20 -22 c-53 -60 -383
-457 -383 -462 0 -4 98 -169 417 -699 2 -4 -75 -6 -172 -5 l-177 3 -140 240
c-77 132 -143 246 -147 253 -4 8 -31 -18 -79 -77 l-72 -89 0 -166 0 -166 -155
0 -155 0 0 595 0 595 155 0 155 0 2 -262z m1428 -30 c143 -35 253 -138 297
-279 24 -74 24 -264 0 -338 -46 -145 -154 -245 -307 -282 -70 -17 -219 -17
-290 0 -131 32 -246 127 -290 239 -71 185 -41 409 70 534 71 80 148 117 300
142 36 6 168 -3 220 -16z"/>
<path d="M1784 1376 c-71 -32 -99 -114 -92 -267 7 -158 50 -214 163 -214 75 0
109 20 140 81 17 33 20 59 20 164 0 138 -14 185 -67 223 -34 26 -122 32 -164
13z"/>
</g>
</svg>
