<?xml version="1.0" encoding="UTF-8" standalone="no"?>
<!-- Created with Inkscape (http://www.inkscape.org/) -->
<svg id="Layer_1" xmlns:rdf="http://www.w3.org/1999/02/22-rdf-syntax-ns#" xmlns="http://www.w3.org/2000/svg" xml:space="preserve" height="128" width="128" version="1.0" xmlns:cc="http://web.resource.org/cc/" xmlns:xlink="http://www.w3.org/1999/xlink" viewBox="0 0 128 128" xmlns:dc="http://purl.org/dc/elements/1.1/"><metadata id="metadata67"><rdf:RDF><cc:Work rdf:about=""><dc:format>image/svg+xml</dc:format><dc:type rdf:resource="http://purl.org/dc/dcmitype/StillImage"/></cc:Work></rdf:RDF></metadata><defs id="defs54"><radialGradient id="radialGradient3280" gradientUnits="userSpaceOnUse" cy="97.12" cx="64.878" gradientTransform="matrix(1 0 0 .99775 0 .14316)" r="55.271"><stop id="stop22" style="stop-color:#fcb600" offset="0"/><stop id="stop24" style="stop-color:#f67c00" offset=".98880"/></radialGradient><radialGradient id="radialGradient3299" gradientUnits="userSpaceOnUse" cy="-12.04" cx="27.658" gradientTransform="matrix(2.1407 0 0 2.0047 -36.165 7.5896)" r="54.031"><stop id="stop3295" style="stop-color:#fff" offset="0"/><stop id="stop3297" style="stop-color:#fff;stop-opacity:0" offset="1"/></radialGradient><linearGradient id="linearGradient2243" y2="34.25" xlink:href="#XMLID_12_" gradientUnits="userSpaceOnUse" x2="65.461" gradientTransform="matrix(.98515 0 0 .98515 1.3775 -6.1005)" y1="106.25" x1="64.211"/></defs>
	<linearGradient id="XMLID_12_" y2="34.25" gradientUnits="userSpaceOnUse" x2="65.461" gradientTransform="matrix(.67182 0 0 .67182 -127.58 -19.138)" y1="106.25" x1="64.211">
		<stop id="stop43" style="stop-color:#ebc710" offset="0"/>
		<stop id="stop45" style="stop-color:#f6b000" offset=".99440"/>
	</linearGradient>
<g id="layer2"><path id="path3249" style="fill:none" d="m69.428 28.307l-7.642 8.689c-9.668-3.011-20.42-2.708-30.429 1.641-22.158 9.626-32.344 35.42-22.718 57.578 9.626 22.155 35.456 32.345 57.614 22.715 22.158-9.62 32.308-35.418 22.682-57.576-0.245-0.564-0.502-1.127-0.767-1.675l6.909-7.817-25.649-23.555z"/><path id="path2299" style="stroke-linejoin:round;stroke:#d53e00;stroke-linecap:round;stroke-width:1.3;fill:#f0a513" d="m117.42 86.882l-19.022 0.398 19.692 37.14-39.135-23.38-1.452 18.66-11.493-17.92-21.062 19.38-1.312-24.138-41.31 14.738 28.808-38.26-26.301-8.406 30.635-9.725-30.302-29.512 36.266 7.821-0.134-30.823 25.243 22.632 11.282-15.06 4.586 15.997 42.731-22.707-22 47.799 22.26 7.268-22.58 14.378 14.6 13.72z"/><path id="path3277" style="fill:url(#radialGradient3280)" d="m112.14 84.607l-17.088 0.361 17.688 33.702-35.152-21.218-1.304 16.928-10.324-16.255-18.917 17.585-1.179-21.903-37.104 13.373 25.875-34.713-23.623-7.627 27.516-8.823-27.217-26.775 32.573 7.096-0.12-27.964 22.674 20.533 10.133-13.663 4.119 14.513 38.38-20.6-19.761 43.365 19.991 6.593-20.275 13.045 13.115 12.447z"/></g><g id="layer1"><g id="g2245" transform="translate(0 -2.2011)"><path id="path2237" style="fill:url(#linearGradient2243)" d="m59.531 39.308c-0.4 0-0.789 0.164-1.065 0.453-0.277 0.289-0.428 0.683-0.411 1.082l1.458 37.844c0.03 0.798 0.679 1.422 1.477 1.422h8.751c0.794 0 1.442-0.622 1.476-1.416l1.613-37.845c0.018-0.4-0.132-0.796-0.41-1.086-0.277-0.29-0.666-0.455-1.066-0.455h-11.823v0.001z"/><path id="path2233" d="m59.531 40.473h11.823l-1.613 37.847h-8.751l-1.459-37.847z"/></g><g id="g2239" transform="translate(0 1.6931)"><path id="path47" style="fill:url(#linearGradient2243)" d="m60.068 82.143c-0.815 0-1.478 0.664-1.478 1.478v10.748c0 0.813 0.663 1.477 1.478 1.477h10.746c0.816 0 1.478-0.664 1.478-1.477v-10.748c0-0.814-0.662-1.478-1.478-1.478h-10.746z"/><path id="path49" d="m60.068 83.308h10.747v10.748h-10.747v-10.748z"/></g><path id="path3284" style="fill:url(#radialGradient3299)" d="m43.75 8.375l0.125 27.969-32.563-7.094 27.219 26.781-27.531 8.813 22.094 7.125c16.826-11.917 36.809-21.65 68.126-23.594l17.84-39.219-38.372 20.594-4.126-14.5-10.124 13.656-22.688-20.531z"/></g></svg>
